<svg width="32" height="32" viewBox="0 0 32 32" fill="none" xmlns="http://www.w3.org/2000/svg">
<rect width="32" height="32" rx="5" fill="#D9D9D9"/>
<path d="M4.88068 20V12.7273H5.76136V19.2188H9.14205V20H4.88068ZM12.608 20.1136C12.1155 20.1136 11.6835 19.9964 11.3118 19.7621C10.9425 19.5277 10.6536 19.1998 10.4453 18.7784C10.2393 18.357 10.1364 17.8646 10.1364 17.3011C10.1364 16.733 10.2393 16.237 10.4453 15.8132C10.6536 15.3894 10.9425 15.0604 11.3118 14.826C11.6835 14.5916 12.1155 14.4744 12.608 14.4744C13.1004 14.4744 13.5313 14.5916 13.9006 14.826C14.2723 15.0604 14.5611 15.3894 14.767 15.8132C14.9754 16.237 15.0795 16.733 15.0795 17.3011C15.0795 17.8646 14.9754 18.357 14.767 18.7784C14.5611 19.1998 14.2723 19.5277 13.9006 19.7621C13.5313 19.9964 13.1004 20.1136 12.608 20.1136ZM12.608 19.3608C12.982 19.3608 13.2898 19.2649 13.5312 19.0732C13.7727 18.8814 13.9515 18.6293 14.0675 18.3168C14.1835 18.0043 14.2415 17.6657 14.2415 17.3011C14.2415 16.9366 14.1835 16.5968 14.0675 16.282C13.9515 15.9671 13.7727 15.7126 13.5312 15.5185C13.2898 15.3243 12.982 15.2273 12.608 15.2273C12.2339 15.2273 11.9261 15.3243 11.6847 15.5185C11.4432 15.7126 11.2644 15.9671 11.1484 16.282C11.0324 16.5968 10.9744 16.9366 10.9744 17.3011C10.9744 17.6657 11.0324 18.0043 11.1484 18.3168C11.2644 18.6293 11.4432 18.8814 11.6847 19.0732C11.9261 19.2649 12.2339 19.3608 12.608 19.3608ZM18.5605 22.1591C18.1557 22.1591 17.8077 22.107 17.5165 22.0028C17.2253 21.901 16.9827 21.7661 16.7885 21.598C16.5968 21.4323 16.4441 21.2547 16.3304 21.0653L16.998 20.5966C17.0738 20.696 17.1697 20.8097 17.2857 20.9375C17.4017 21.0677 17.5603 21.1802 17.7615 21.2749C17.9651 21.3719 18.2315 21.4205 18.5605 21.4205C19.0009 21.4205 19.3643 21.3139 19.6507 21.1009C19.9372 20.8878 20.0804 20.554 20.0804 20.0994V18.9915H20.0094C19.9479 19.0909 19.8603 19.214 19.7466 19.3608C19.6354 19.5052 19.4744 19.6342 19.2637 19.7479C19.0553 19.8591 18.7736 19.9148 18.4185 19.9148C17.9782 19.9148 17.5828 19.8106 17.2324 19.6023C16.8844 19.3939 16.6086 19.0909 16.405 18.6932C16.2038 18.2955 16.1032 17.8125 16.1032 17.2443C16.1032 16.6856 16.2014 16.1991 16.3979 15.7848C16.5944 15.3681 16.8678 15.0462 17.2182 14.8189C17.5686 14.5893 17.9734 14.4744 18.4327 14.4744C18.7878 14.4744 19.0695 14.5336 19.2779 14.652C19.4886 14.768 19.6496 14.9006 19.7608 15.0497C19.8745 15.1965 19.9621 15.3172 20.0236 15.4119H20.1088V14.5455H20.9185V20.1562C20.9185 20.625 20.812 21.0062 20.5989 21.2997C20.3882 21.5956 20.1041 21.8123 19.7466 21.9496C19.3915 22.0893 18.9962 22.1591 18.5605 22.1591ZM18.5321 19.1619C18.8683 19.1619 19.1524 19.085 19.3844 18.9311C19.6164 18.7772 19.7928 18.5559 19.9135 18.267C20.0343 17.9782 20.0946 17.6326 20.0946 17.2301C20.0946 16.8371 20.0355 16.4903 19.9171 16.1896C19.7987 15.889 19.6235 15.6534 19.3915 15.483C19.1595 15.3125 18.873 15.2273 18.5321 15.2273C18.177 15.2273 17.8811 15.3172 17.6444 15.4972C17.41 15.6771 17.2336 15.9186 17.1152 16.2216C16.9992 16.5246 16.9412 16.8608 16.9412 17.2301C16.9412 17.6089 17.0004 17.9439 17.1188 18.2351C17.2395 18.5239 17.4171 18.7512 17.6515 18.9169C17.8882 19.0803 18.1818 19.1619 18.5321 19.1619ZM24.6685 20.1136C24.1761 20.1136 23.744 19.9964 23.3723 19.7621C23.003 19.5277 22.7142 19.1998 22.5059 18.7784C22.2999 18.357 22.1969 17.8646 22.1969 17.3011C22.1969 16.733 22.2999 16.237 22.5059 15.8132C22.7142 15.3894 23.003 15.0604 23.3723 14.826C23.744 14.5916 24.1761 14.4744 24.6685 14.4744C25.1609 14.4744 25.5918 14.5916 25.9611 14.826C26.3328 15.0604 26.6216 15.3894 26.8276 15.8132C27.0359 16.237 27.1401 16.733 27.1401 17.3011C27.1401 17.8646 27.0359 18.357 26.8276 18.7784C26.6216 19.1998 26.3328 19.5277 25.9611 19.7621C25.5918 19.9964 25.1609 20.1136 24.6685 20.1136ZM24.6685 19.3608C25.0426 19.3608 25.3503 19.2649 25.5918 19.0732C25.8333 18.8814 26.012 18.6293 26.128 18.3168C26.244 18.0043 26.302 17.6657 26.302 17.3011C26.302 16.9366 26.244 16.5968 26.128 16.282C26.012 15.9671 25.8333 15.7126 25.5918 15.5185C25.3503 15.3243 25.0426 15.2273 24.6685 15.2273C24.2944 15.2273 23.9867 15.3243 23.7452 15.5185C23.5037 15.7126 23.325 15.9671 23.209 16.282C23.093 16.5968 23.035 16.9366 23.035 17.3011C23.035 17.6657 23.093 18.0043 23.209 18.3168C23.325 18.6293 23.5037 18.8814 23.7452 19.0732C23.9867 19.2649 24.2944 19.3608 24.6685 19.3608Z" fill="black"/>
</svg>
