<svg width="24" height="24" viewBox="0 0 24 24" fill="none" xmlns="http://www.w3.org/2000/svg">
<rect width="24" height="24" rx="5" fill="#D9D9D9"/>
<path d="M4.44034 14V10.3636H5.66903C5.95431 10.3636 6.1875 10.4151 6.36861 10.5181C6.5509 10.6199 6.68584 10.7578 6.77344 10.9318C6.86103 11.1058 6.90483 11.3 6.90483 11.5142C6.90483 11.7285 6.86103 11.9232 6.77344 12.0984C6.68703 12.2736 6.55327 12.4132 6.37216 12.5174C6.19105 12.6204 5.95904 12.6719 5.67614 12.6719H4.79545V12.2812H5.66193C5.85724 12.2812 6.01409 12.2475 6.13246 12.18C6.25083 12.1126 6.33665 12.0214 6.38991 11.9066C6.44437 11.7906 6.47159 11.6598 6.47159 11.5142C6.47159 11.3686 6.44437 11.2384 6.38991 11.1236C6.33665 11.0088 6.25024 10.9188 6.13068 10.8537C6.01113 10.7874 5.85251 10.7543 5.65483 10.7543H4.88068V14H4.44034ZM7.55735 14V11.2727H7.96218V11.6847H7.99059C8.04031 11.5497 8.13027 11.4402 8.26048 11.3562C8.39068 11.2721 8.53746 11.2301 8.70082 11.2301C8.73159 11.2301 8.77006 11.2307 8.81623 11.2319C8.86239 11.2331 8.89731 11.2348 8.92099 11.2372V11.6634C8.90678 11.6598 8.87423 11.6545 8.82333 11.6474C8.77362 11.6391 8.72094 11.6349 8.66531 11.6349C8.53273 11.6349 8.41436 11.6628 8.31019 11.7184C8.20721 11.7728 8.12553 11.8486 8.06516 11.9457C8.00598 12.0415 7.97638 12.151 7.97638 12.2741V14H7.55735ZM10.4426 14.0568C10.1964 14.0568 9.98041 13.9982 9.79457 13.881C9.60991 13.7638 9.46549 13.5999 9.36133 13.3892C9.25835 13.1785 9.20685 12.9323 9.20685 12.6506C9.20685 12.3665 9.25835 12.1185 9.36133 11.9066C9.46549 11.6947 9.60991 11.5302 9.79457 11.413C9.98041 11.2958 10.1964 11.2372 10.4426 11.2372C10.6889 11.2372 10.9043 11.2958 11.089 11.413C11.2748 11.5302 11.4192 11.6947 11.5222 11.9066C11.6264 12.1185 11.6784 12.3665 11.6784 12.6506C11.6784 12.9323 11.6264 13.1785 11.5222 13.3892C11.4192 13.5999 11.2748 13.7638 11.089 13.881C10.9043 13.9982 10.6889 14.0568 10.4426 14.0568ZM10.4426 13.6804C10.6297 13.6804 10.7836 13.6325 10.9043 13.5366C11.025 13.4407 11.1144 13.3146 11.1724 13.1584C11.2304 13.0021 11.2594 12.8329 11.2594 12.6506C11.2594 12.4683 11.2304 12.2984 11.1724 12.141C11.1144 11.9835 11.025 11.8563 10.9043 11.7592C10.7836 11.6622 10.6297 11.6136 10.4426 11.6136C10.2556 11.6136 10.1017 11.6622 9.981 11.7592C9.86026 11.8563 9.77089 11.9835 9.71289 12.141C9.65489 12.2984 9.62589 12.4683 9.62589 12.6506C9.62589 12.8329 9.65489 13.0021 9.71289 13.1584C9.77089 13.3146 9.86026 13.4407 9.981 13.5366C10.1017 13.6325 10.2556 13.6804 10.4426 13.6804ZM13.5326 11.2727V11.6278H12.0624V11.2727H13.5326ZM12.5028 14V10.8963C12.5028 10.7401 12.5394 10.6098 12.6128 10.5057C12.6862 10.4015 12.7815 10.3234 12.8987 10.2713C13.0159 10.2192 13.1396 10.1932 13.2698 10.1932C13.3728 10.1932 13.4568 10.2015 13.5219 10.218C13.587 10.2346 13.6356 10.25 13.6675 10.2642L13.5468 10.6264C13.5255 10.6193 13.4959 10.6104 13.458 10.5998C13.4213 10.5891 13.3728 10.5838 13.3124 10.5838C13.1739 10.5838 13.0739 10.6187 13.0123 10.6886C12.952 10.7584 12.9218 10.8608 12.9218 10.9957V14H12.5028ZM14.1199 14V11.2727H14.5389V14H14.1199ZM14.3329 10.8182C14.2512 10.8182 14.1808 10.7904 14.1216 10.7347C14.0636 10.6791 14.0346 10.6122 14.0346 10.5341C14.0346 10.456 14.0636 10.3891 14.1216 10.3335C14.1808 10.2778 14.2512 10.25 14.3329 10.25C14.4146 10.25 14.4844 10.2778 14.5424 10.3335C14.6016 10.3891 14.6312 10.456 14.6312 10.5341C14.6312 10.6122 14.6016 10.6791 14.5424 10.7347C14.4844 10.7904 14.4146 10.8182 14.3329 10.8182ZM15.7254 10.3636V14H15.3064V10.3636H15.7254ZM17.6364 14.0568C17.3736 14.0568 17.1469 13.9988 16.9563 13.8828C16.7669 13.7656 16.6207 13.6023 16.5178 13.3928C16.416 13.1821 16.3651 12.937 16.3651 12.6577C16.3651 12.3783 16.416 12.1321 16.5178 11.919C16.6207 11.7048 16.764 11.5379 16.9474 11.4183C17.1321 11.2976 17.3475 11.2372 17.5938 11.2372C17.7358 11.2372 17.8761 11.2609 18.0146 11.3082C18.1531 11.3556 18.2791 11.4325 18.3928 11.5391C18.5064 11.6444 18.5969 11.7841 18.6644 11.9581C18.7319 12.1321 18.7656 12.3464 18.7656 12.6009V12.7784H16.6634V12.4162H18.3395C18.3395 12.2623 18.3087 12.125 18.2472 12.0043C18.1868 11.8835 18.1004 11.7882 17.9879 11.7184C17.8767 11.6486 17.7453 11.6136 17.5938 11.6136C17.4268 11.6136 17.2824 11.6551 17.1605 11.7379C17.0398 11.8196 16.9469 11.9261 16.8817 12.0575C16.8166 12.1889 16.7841 12.3298 16.7841 12.4801V12.7216C16.7841 12.9276 16.8196 13.1022 16.8906 13.2454C16.9628 13.3874 17.0629 13.4957 17.1907 13.5703C17.3185 13.6437 17.4671 13.6804 17.6364 13.6804C17.7464 13.6804 17.8459 13.665 17.9347 13.6342C18.0246 13.6023 18.1022 13.5549 18.1673 13.4922C18.2324 13.4283 18.2827 13.349 18.3182 13.2543L18.723 13.3679C18.6804 13.5052 18.6088 13.6259 18.5082 13.7301C18.4076 13.8331 18.2833 13.9136 18.1353 13.9716C17.9873 14.0284 17.821 14.0568 17.6364 14.0568Z" fill="black"/>
</svg>
